<?xml version="1.0" encoding="UTF-8"?>
<svg width="128px" height="128px" viewBox="0 0 128 128" version="1.1" xmlns="http://www.w3.org/2000/svg" xmlns:xlink="http://www.w3.org/1999/xlink">
    <!-- Generator: Sketch 59.1 (86144) - https://sketch.com -->
    <title>noun_groceries_2768498 (1)</title>
    <desc>Created with Sketch.</desc>
    <defs>
        <linearGradient x1="50%" y1="0%" x2="50%" y2="100%" id="linearGradient-1">
            <stop stop-color="#3299BB" offset="0%"></stop>
            <stop stop-color="#176085" offset="100%"></stop>
        </linearGradient>
        <filter x="0.0%" y="0.0%" width="100.0%" height="100.0%" filterUnits="objectBoundingBox" id="filter-2">
            <feGaussianBlur stdDeviation="0" in="SourceGraphic"></feGaussianBlur>
        </filter>
    </defs>
    <g id="Page-1" stroke="none" stroke-width="1" fill="none" fill-rule="evenodd">
        <g id="noun_groceries_2768498-(1)" fill-rule="nonzero">
            <path d="M42.15475,6.78662 C44.706,9.14258 46,12.91553 46,18 C46,19.1045695 46.8954305,20 48,20 C49.1045695,20 50,19.1045695 50,18 C50,11.72363 48.25781,6.94775 44.82129,3.80469 C41.7835363,1.16686067 37.8396635,-0.187387366 33.82223,0.02783 C32.7276301,0.130378249 31.921024,1.09719828 32.0163105,2.19245418 C32.111597,3.28771007 33.0730462,4.10071054 34.16891,4.01269 C37.0850052,3.8999656 39.9364613,4.89043619 42.15475,6.78662 Z" id="Path" fill="#A6643E"></path>
            <path d="M96.367,26.45972 C96.7659566,25.2135862 96.6463229,23.8592968 96.03509,22.7024 C94.60675,19.90882 90.76269,18.33771 88.59838,17.64985 C86.8456674,17.0666377 85.015022,16.7510894 83.1682,16.71385 L83.16808,16.71385 C78.79631,16.71385 77.50658,19.20024 77.15502,20.26915 C76.7560427,21.5152755 76.8756549,22.8695656 77.48687,24.02647 C78.91521,26.81999 82.75927,28.39116 84.92358,29.07902 C86.6763907,29.6622528 88.5071381,29.9778013 90.35406,30.01502 C94.72568,30.01502 96.01541,27.52869 96.367,26.45972 Z" id="Path" fill-opacity="0.825502622" fill="#894413"></path>
            <path d="M76.91037,35.73926 L76.91025,35.73926 C73.86295,35.73932 72.31546,36.94684 71.53702,38.04083 C72.0843064,37.9662594 72.6361098,37.929775 73.18845,37.93164 C74.9234429,37.8972971 76.6379277,38.3113698 78.166,39.13379 C80.1834437,40.1974209 82.5956647,40.1976042 84.61327,39.13428 C85.16845,38.8521606 85.7432426,38.6104243 86.33318,38.41095 C85.0690301,37.689624 83.7303202,37.1076424 82.34057,36.67523 C80.5878494,36.0920259 78.7571972,35.7764877 76.91037,35.73926 L76.91037,35.73926 Z" id="Path" fill-opacity="0.825502622" fill="#894413"></path>
            <path d="M103.80404,38.13599 C105.85543,25.34406 105.23733,14.18647 101.79415,7.45221 C100.315133,4.21454744 97.5857555,1.7155336 94.23056,0.527 C93.1182239,0.175440648 91.9582877,-0.00231880808 90.79172,-6.59154242e-05 C78.30606,0.00189 65.859,18.87421 58.60446,38.06763 C59.7095935,38.2490598 60.7777859,38.6093291 61.76706,39.13428 C61.9747,39.2356 62.16953,39.32928 62.36417,39.41614 C70.15854,18.701 81.96976,4.00134 90.79037,4 C91.5462732,3.9970981 92.2980519,4.1114747 93.01889,4.33905 C100.56833,6.73859 102.85233,21.37292 99.47824,39.74841 C100.013385,39.6000329 100.530825,39.3939502 101.02145,39.13379 C101.898113,38.6735166 102.834654,38.3376854 103.80404,38.13599 Z" id="Path" fill="#A0522D"></path>
            <path d="M3.99999985,128 L35.9999999,128 C37.0609546,128 38.0785383,127.578955 38.8287465,126.828747 C39.5789547,126.078538 39.9999999,125.060955 39.9999999,124 L39.9999999,61.1 C39.9999999,58.55 30.68,41.79 29.45,38.72 C30.9866017,38.1255153 31.9996948,36.6475912 31.9999999,34.9999998 L31.9999999,30.9999998 C32.0002998,29.9390421 31.5789688,28.9214523 30.8287583,28.1712417 C30.0785477,27.4210312 29.0609579,26.9999998 27.9999999,26.9999998 L11.9999999,26.9999998 C10.9390421,26.9999998 9.92145227,27.4210312 9.17124175,28.1712417 C8.42103122,28.9214523 7.99970015,29.9390421 7.99999985,30.9999998 L7.99999985,34.9999998 C8.00135115,36.6586589 9.02846098,38.143589 10.58,38.73 C9.34994,41.88 -1.48808908e-07,58.56 -1.48808908e-07,61.1 L-1.48808908e-07,124 C-1.48808908e-07,125.060955 0.421045253,126.078538 1.17125347,126.828747 C1.92146169,127.578955 2.9390454,128 3.99999985,128 Z M12,31 L28,31 L28,35 L12,35 L12,31 Z M20,73 C26.627417,73 32,78.372583 32,85 C32,91.627417 26.627417,97 20,97 C13.372583,97 8,91.627417 8,85 C8.00524978,78.3747588 13.3747588,73.0052498 20,73 Z" id="Shape" fill="url(#linearGradient-1)"></path>
            <path d="M127.97653,98.71484 L127.99216,98.17822 C128.044356,97.5953784 127.838682,97.0189135 127.42934,96.6007417 C127.019998,96.1825698 126.448053,95.9646424 125.86423,96.00439 C120.709183,96.3954432 115.638634,97.5356263 110.81241,99.389 C110.00955,93.40285 106.33811,86.93215 99.81641,80.08492 L99.45899,79.70601 C99.0833974,79.2636644 98.5343307,79.0060782 97.95407,79 C97.3711087,78.9817249 96.8116469,79.2303537 96.43454,79.67529 C94.67319,81.66821 87.24417,90.5722 85.41208,100.75586 C79.6501306,98.0973068 73.4600099,96.4882675 67.13278,96.0044 C66.5441314,95.9512584 65.9625123,96.1638141 65.54684,96.58399 C65.1370161,96.9993931 64.9386145,97.5787866 65.00778,98.15821 L65.00878,98.30176 L65.0205,98.7124 C65.3525,111.05078 68.45312,119.65478 74.23632,124.28515 C77.4298478,126.792991 81.39888,128.106908 85.458,128 C87.2229228,127.989944 88.9827383,127.809253 90.71288,127.46045 C91.6657504,127.273463 92.3468172,126.429314 92.32811,125.45845 C92.2062204,123.145507 91.6872558,120.870784 90.79393,118.73384 C90.62401,118.32075 90.43747,117.90767 90.22557,117.47993 C88.4579565,113.856061 85.320374,111.084982 81.50584,109.77876 C80.8294578,109.544566 80.079487,109.689692 79.5392974,110.159304 C78.9991077,110.628915 78.7510663,111.351406 78.8888934,112.05379 C79.0267204,112.756174 79.5294004,113.331353 80.207,113.562 C83.0351828,114.51962 85.3575316,116.57755 86.64841,119.27 C86.81052,119.59813 86.95993,119.92625 87.09958,120.26707 C87.5736257,121.41175 87.9188491,122.605617 88.12888,123.82664 C83.49216,124.39939 79.66599,123.50828 76.7363,121.16258 C72.1513,117.49119 69.5781,110.44627 69.07907,100.21141 C75.207,100.96294 90.96622,104.03978 94.61923,115.91423 C93.8512743,119.324013 93.795049,122.855568 94.45407,126.28807 C94.5772284,126.991785 95.0664589,127.57634 95.7374731,127.821539 C96.4084873,128.066739 97.1593423,127.93533 97.7071981,127.476814 C98.255054,127.018299 98.5166784,126.302335 98.39352,125.59862 C97.3486,119.6245 98.41012,114.56395 101.55172,110.55762 C107.40133,103.09473 118.93844,100.85498 123.91793,100.22022 C123.42184,110.51856 120.85738,117.58252 116.28805,121.23292 C113.42184,123.52149 109.68942,124.39161 105.1777,123.82911 C105.385847,122.603003 105.728406,121.403552 106.19918,120.25245 C107.346598,117.118435 109.836121,114.662231 112.98531,113.55714 C113.661636,113.323526 114.161605,112.746356 114.296379,112.043627 C114.431153,111.340897 114.180192,110.61971 113.638283,110.152454 C113.096374,109.685199 112.346109,109.543089 111.67086,109.7798 C107.443511,111.265198 104.087427,114.540897 102.5,118.731 C101.616079,120.870912 101.102254,123.145481 100.98047,125.45756 C100.961739,126.42656 101.64023,127.269643 102.59082,127.45856 C104.301358,127.808644 106.042124,127.990013 107.78809,128.00006 C111.765354,128.101507 115.653656,126.813809 118.78418,124.35846 C124.5527,119.751 127.64548,111.123 127.97653,98.71484 Z M98.40329,108.08984 L98.38895,108.10919 C97.8413419,105.671973 98.168976,103.119774 99.31443,100.8999 C99.8106302,99.9129036 99.4127614,98.7105352 98.425765,98.214335 C97.4387686,97.7181348 96.2364002,98.1160036 95.7402,99.103 C94.4629406,101.607347 93.9322968,104.426001 94.21145,107.22336 C92.7257538,105.565044 91.0284681,104.109269 89.16323,102.89346 C90.07772,94.99209 95.35818,87.40066 98.02047,84.02633 C103.72457,90.30251 106.72994,96.04745 106.98422,101.15243 C103.670117,102.839188 100.746824,105.202578 98.40329,108.08984 L98.40329,108.08984 Z" id="Shape" fill="#8CC45B"></path>
            <path d="M78,68 L78,93.83 C79.5,94.22 81.09,94.70006 82.7,95.29 C83.5761169,92.6780812 84.6803758,90.1483243 86,87.73 L86,68 C86,65.790861 84.209139,64 82,64 C79.790861,64 78,65.790861 78,68 Z" id="Path" fill-opacity="0.7" fill="#B59673"></path>
            <path d="M52,68 L52,102 C52,104.209139 53.790861,106 56,106 C58.209139,106 60,104.209139 60,102 L60,68 C60,65.790861 58.209139,64 56,64 C53.790861,64 52,65.790861 52,68 Z" id="Path" fill-opacity="0.7" fill="#B59673"></path>
            <path d="M38.33426,47.27667 C42.16067,54.10553 44,57.54572 44,61.09814 L44,119.91095 C44.18158,121.59155 44.33716,122.9798 44.46,124 L44,124 C43.997921,124.328863 43.975582,124.657285 43.93311,124.9834 C43.92298,125.06403 43.909,125.14307 43.89643,125.22296 C43.8560806,125.485393 43.8025462,125.745629 43.73603,126.00268 C43.72187,126.05668 43.70954,126.11096 43.69434,126.16442 C43.5159875,126.798344 43.2595032,127.407631 42.93079,127.97826 L42.92,128 L72.52,128 C72.25,127.81 71.99,127.61 71.74,127.41 C71.53,127.24 71.32,127.07 71.12,126.89 C66.27,122.7 63.15,116.21 61.78,107.52 C59.5250099,109.887357 56.0555525,110.642631 53.0205443,109.426866 C49.9855361,108.211101 47.996992,105.269457 48,102 L48,68 C48,63.581722 51.581722,60 56,60 C60.418278,60 64,63.581722 64,68 L64,92.81 C65.0265537,92.2152941 66.205873,91.9369887 67.39,92.01 C69.6091583,92.1793433 71.81635,92.4798686 74,92.91 L74,68 C74,63.581722 77.581722,60 82,60 C86.418278,60 90,63.581722 90,68 L90,81.36 C91.47,79.32 92.74,77.82 93.44,77.03 C94.5792251,75.7376801 96.2194956,74.9981199 97.9422611,75.0000341 C99.6650266,75.0019483 101.303649,75.7451517 102.44,77.04 L102.72,77.33 C103.62,78.27 104.47,79.21 105.26,80.15 L107.99,44.15 C107.995021,44.1068121 107.995021,44.0631879 107.99,44.02 C107.99,43.99 108,43.96 108,43.93 C108,43.88 107.99,43.83 107.99,43.78 C107.98184,43.76111 107.978407,43.7405155 107.98,43.72 C107.871854,42.7063185 107.019418,41.9356817 106,41.93 C104.264796,41.8984722 102.550397,42.3115802 101.02,43.13 C99.0022954,44.1966493 96.5877046,44.1966493 94.57,43.13 C91.4427731,41.5299918 87.7372269,41.5299918 84.61,43.13 C82.5958342,44.1966491 80.1841658,44.1966491 78.17,43.13 C75.0427782,41.5299704 71.3372218,41.5299704 68.21,43.13 C66.1958342,44.1966491 63.7841658,44.1966491 61.77,43.13 C58.6463014,41.5299868 54.9436986,41.5299868 51.82,43.13 C49.8022954,44.1966493 47.3877046,44.1966493 45.37,43.13 C43.8438199,42.3099742 42.1322124,41.8967088 40.4,41.93 C38.8553808,41.8955322 37.3242612,42.2243633 35.93,42.89 C35.93293,42.89555 35.93677,42.91228 35.93989,42.92052 C36.89352,44.70386 37.8182,46.35559 38.33426,47.27667 Z" id="Path" fill="#B59673" filter="url(#filter-2)"></path>
            <path d="M34.58133,39.51843 C34.85873,39.40594 35.12802,39.27743 35.42133,39.13427 C38.5447685,37.530754 42.2495515,37.530754 45.37299,39.13427 C47.3890389,40.1974205 49.7998111,40.1974205 51.81586,39.13427 C52.5989507,38.7250533 53.4284681,38.4116206 54.2865,38.20074 C57.0859235,30.3644055 60.7098414,22.8476074 65.09726,15.77686 C61.7054714,12.2091376 57.33636,9.7215423 52.5372,8.62567 L52.53744,8.6264 C53.5496545,11.646201 54.04414,14.8153764 54,18 C54,21.3137085 51.3137085,24 48,24 C44.6862915,24 42,21.3137085 42,18 C42,14.09424 41.14648,11.31738 39.46338,9.74561 C39.24457,9.71039 39.13165,9.46061 38.95923,9.33429 C32.3142782,11.6126058 26.9263173,16.5683062 24.10153,23 L28,23 C32.4162219,23.0049599 35.9950401,26.5837781 36,31 L36,35 C35.9985848,36.6155174 35.5035986,38.1920367 34.58133,39.51843 L34.58133,39.51843 Z" id="Path" fill="#DF4746"></path>
        </g>
    </g>
</svg>