<?xml version="1.0" encoding="UTF-8"?>
<svg width="60px" height="44px" viewBox="0 0 60 44" version="1.1" xmlns="http://www.w3.org/2000/svg" xmlns:xlink="http://www.w3.org/1999/xlink">
    <!-- Generator: Sketch 59.1 (86144) - https://sketch.com -->
    <title>Group 2</title>
    <desc>Created with Sketch.</desc>
    <g id="Page-1" stroke="none" stroke-width="1" fill="none" fill-rule="evenodd">
        <g id="Group-2">
            <text id="caretakers" transform="translate(47.364457, 40.190025) rotate(-19.000000) translate(-47.364457, -40.190025) " font-family="DINAlternate-Bold, DIN Alternate" font-size="6" font-weight="bold" fill="#791313">
                <tspan x="33.9582066" y="39.1900248">caretakers</tspan>
            </text>
            <text id="4" transform="translate(30.000000, 45.500000) rotate(-1.000000) translate(-30.000000, -45.500000) " font-family="DINAlternate-Bold, DIN Alternate" font-size="6" font-weight="bold" fill="#791313">
                <tspan x="28.5600586" y="44">4</tspan>
            </text>
            <text id="caring" transform="translate(18.000000, 40.500000) rotate(31.000000) translate(-18.000000, -40.500000) " font-family="DINAlternate-Bold, DIN Alternate" font-size="6" font-weight="bold" fill="#791313">
                <tspan x="10.1132812" y="39">caring</tspan>
            </text>
            <g id="noun_Health-Care_842355" fill-rule="nonzero">
                <path d="M43.4726575,17 L43.4726575,17 C44.0741925,16.5046218 50.3629677,10.5050414 51.5660377,8.30336046 C51.5660377,8.30336046 54.7924528,4.34033485 51.5660377,1.42310767 C51.5660377,1.42310767 46.9178126,-2.53991795 43.4726575,2.85420025 C40.0821874,-2.53991795 35.4339623,1.36806564 35.4339623,1.36806564 C32.2075472,4.28529283 35.4339623,8.24831844 35.4339623,8.24831844 C36.6370323,10.4499993 42.7070675,16.2844537 43.4726575,17 Z" id="Path" fill="#DFB4B4"></path>
                <path d="M54.3251943,21.2418476 L42.4858784,25.0390896 L42.4858784,25.1094089 C42.7941939,26.4454756 42.6092046,27.9221808 41.9925736,29.1176089 C41.3759425,30.4536755 40.3276698,31.3678264 39.0327446,31.7897421 C37.7994825,32.2116579 36.4428942,32.0007 35.2712953,31.2975071 L28.4266908,26.9377106 L29.0433218,25.601644 L35.8879263,29.9614404 C36.7512098,30.5239948 37.6761563,30.5943141 38.6011029,30.3130369 C39.5260494,30.0317597 40.2660067,29.3285667 40.7593115,28.3440966 C41.0059639,27.8518615 41.1292901,27.2893071 41.1909532,26.7267528 C41.3759425,25.3906861 40.8209746,23.9843002 39.7727018,23.3514265 L23.185327,12.803532 C23.185327,12.803532 21.4587601,11.4674653 19.1155621,12.2409776 C19.1155621,12.2409776 19.1155621,12.2409776 19.053899,12.2409776 C18.6222573,12.3112969 0.801620347,18.1477985 0.0616631036,18.3587564 L0,18.3587564 L3.76144932,33.0554895 L13.8715438,29.7504825 C15.1048059,30.5943141 25.9601666,36.4308157 27.0701025,37.204328 C29.1049849,38.5403946 31.5715091,37.8372017 32.126477,37.6262438 C32.1881401,37.6262438 56.4217398,29.7504825 56.4217398,29.7504825 C58.0866436,29.1879281 59.504895,26.6564335 58.8266009,24.0546195 C58.333296,21.8747213 56.2984136,20.6089739 54.3251943,21.2418476 Z" id="Path" fill="#B16868"></path>
            </g>
        </g>
    </g>
</svg>