<?xml version="1.0" encoding="UTF-8"?>
<svg width="122px" height="102px" viewBox="0 0 122 102" version="1.1" xmlns="http://www.w3.org/2000/svg" xmlns:xlink="http://www.w3.org/1999/xlink">
    <!-- Generator: Sketch 59.1 (86144) - https://sketch.com -->
    <title>Group 3</title>
    <desc>Created with Sketch.</desc>
    <g id="Page-1" stroke="none" stroke-width="1" fill="none" fill-rule="evenodd">
        <g id="Group-3" transform="translate(0.000000, -9.000000)">
            <g id="noun_Brain_454654" transform="translate(0.000000, 13.210145)" fill="#87CAC5" fill-rule="nonzero">
                <path d="M112,38.5688024 C112,32.953013 108.717024,27.8477498 103.666291,25.5503814 C102.403608,17.6372235 95.9639233,11.5109077 88.1352875,10.8727498 C85.988726,6.40564455 81.4430665,3.47011823 76.3923337,3.47011823 C76.3923337,3.47011823 76.3923337,3.47011823 76.3923337,3.47011823 C76.3923337,3.47011823 76.3923337,3.47011823 76.3923337,3.47011823 C75.7609921,3.47011823 75.1296505,3.59774981 74.4983089,3.59774981 C74.4983089,3.59774981 74.3720406,3.59774981 74.3720406,3.59774981 C73.740699,3.72538139 72.9830891,3.85301297 72.3517475,4.10827613 C69.8263811,2.06617086 66.6696731,0.789855072 63.3866967,0.789855072 C60.735062,0.789855072 58.0834273,1.55564455 55.9368658,3.08722349 C53.6640361,2.06617086 51.1386697,1.55564455 48.4870349,1.55564455 C43.3100338,1.55564455 38.3855693,3.72538139 34.9763247,7.68196034 C33.8399098,7.42669718 32.8297632,7.2990656 31.6933484,7.2990656 C27.1476888,7.2990656 22.9808343,9.59643402 20.5817362,13.553013 C20.4554679,13.553013 20.2029312,13.553013 20.0766629,13.553013 C19.8241263,13.553013 19.5715896,13.553013 19.4453213,13.553013 C19.1927847,13.553013 18.940248,13.6806445 18.6877114,13.6806445 C18.4351747,13.6806445 18.3089064,13.8082761 18.0563698,13.8082761 C17.8038331,13.8082761 17.5512965,13.9359077 17.2987599,14.0635393 C17.0462232,14.0635393 16.9199549,14.1911709 16.6674183,14.1911709 C16.4148816,14.3188024 16.162345,14.3188024 16.0360767,14.446434 C15.78354,14.5740656 15.5310034,14.5740656 15.4047351,14.7016972 C15.2784667,14.8293288 15.0259301,14.8293288 14.8996618,14.9569603 C14.6471251,15.0845919 14.3945885,15.2122235 14.1420519,15.3398551 C14.1420519,15.3398551 14.1420519,15.3398551 14.1420519,15.3398551 C9.72266065,17.7648551 6.69222097,22.4872235 6.31341601,27.8477498 C6.31341601,27.8477498 6.31341601,27.9753814 6.31341601,27.9753814 C2.27282976,31.8043288 0,37.2924867 0,42.9082761 C0,54.2674867 9.21758737,63.5845919 20.4554679,63.5845919 C21.5918828,63.5845919 22.854566,63.4569603 23.9909808,63.3293288 C25.5062007,63.8398551 27.1476888,64.0951182 28.789177,64.2227498 C32.0721533,72.3911709 38.638106,76.7306445 47.6031567,76.7306445 C56.1894025,76.7306445 66.5434047,85.5372235 66.5434047,95.8753814 L66.5434047,97.7898551 L80.9379932,97.7898551 L79.2965051,85.9201182 C89.2717024,86.9411709 98.7418264,80.4319603 101.267193,70.3490656 C101.645998,68.5622235 101.898534,66.7753814 101.898534,65.1161709 C107.833145,62.946434 112,57.203013 112,50.6938024 C112,48.5240656 111.621195,46.4819603 110.737317,44.5674867 C111.494927,42.653013 112,40.6109077 112,38.5688024 Z M106.570462,45.4609077 C107.45434,47.1201182 107.833145,48.7793288 107.833145,50.6938024 C107.833145,55.0332761 105.307779,58.9898551 101.393461,60.7766972 C99.7519729,53.246434 93.9436302,47.1201182 86.4937993,45.2056445 C85.3573844,44.9503814 84.2209696,45.5885393 83.9684329,46.7372235 C83.7158963,47.8859077 84.3472379,49.0345919 85.4836528,49.2898551 C92.1758737,50.9490656 97.1003382,56.6924867 97.7316798,63.5845919 C97.9842165,65.4990656 97.7316798,67.4135393 97.3528749,69.328013 C95.0800451,78.2622235 86.2412627,83.6227498 77.4024803,81.3253814 L74.4983089,80.5595919 L76.2660654,93.578013 L70.4577227,93.578013 C69.1950395,81.5806445 57.3258174,72.2635393 47.4768884,72.2635393 C40.6583991,72.2635393 35.8602029,69.4556445 33.0822999,63.8398551 C33.0822999,63.7122235 33.0822999,63.5845919 32.9560316,63.4569603 C30.8094701,58.9898551 32.7034949,53.5016972 37.2491545,51.3319603 C38.259301,50.821434 38.7643743,49.5451182 38.259301,48.5240656 C37.7542277,47.503013 36.4915445,46.9924867 35.481398,47.503013 C30.6832018,49.8003814 28.0315671,54.6503814 28.0315671,59.628013 C26.8951522,59.5003814 25.7587373,59.2451182 24.7485908,58.8622235 L24.2435175,58.6069603 L23.7384442,58.7345919 C22.7282976,58.9898551 21.5918828,59.1174867 20.4554679,59.1174867 C11.4904171,59.1174867 4.04058625,51.7148551 4.04058625,42.5253814 C4.04058625,39.2069603 5.05073281,35.8885393 6.94475761,33.2082761 C8.45997745,38.0582761 12.5005637,41.8872235 17.4250282,43.1635393 C17.0462232,43.8016972 16.7936866,44.4398551 16.6674183,45.078013 C16.162345,47.3753814 16.4148816,49.6727498 17.6775648,51.7148551 C18.0563698,52.353013 18.6877114,52.7359077 19.4453213,52.7359077 C19.8241263,52.7359077 20.2029312,52.6082761 20.4554679,52.4806445 C21.4656144,51.8424867 21.7181511,50.5661709 21.2130778,49.6727498 C20.5817362,48.6516972 20.4554679,47.3753814 20.7080045,46.2266972 C20.9605411,45.078013 21.7181511,44.0569603 22.7282976,43.4188024 C23.7384442,42.7806445 23.9909808,41.5043288 23.4859076,40.6109077 C22.9808343,39.8451182 22.096956,39.4622235 21.2130778,39.7174867 C15.2784667,39.5898551 10.3540023,34.6122235 10.3540023,28.6135393 C10.3540023,22.4872235 15.2784667,17.5095919 21.3393461,17.5095919 C21.4656144,17.5095919 21.4656144,17.5095919 21.5918828,17.5095919 L23.2333709,17.6372235 L23.8647125,16.3609077 C25.3799324,13.1701182 28.5366404,11.2556445 31.945885,11.2556445 C33.0822999,11.2556445 34.0924464,11.5109077 35.2288613,11.8938024 L36.6178129,12.4043288 L37.5016911,11.128013 C40.1533258,7.55432876 44.3201804,5.51222349 48.7395716,5.51222349 C51.0124014,5.51222349 53.4114994,6.15038139 55.4317926,7.17143402 L56.6944758,7.80959191 L57.7046223,6.91617086 C59.3461105,5.51222349 61.3664036,4.74643402 63.5129651,4.74643402 C65.2807215,4.74643402 67.048478,5.25696034 68.4374295,6.27801297 C65.4069899,8.70301297 63.3866967,12.4043288 63.3866967,16.6161709 C63.3866967,17.7648551 64.270575,18.6582761 65.4069899,18.6582761 C66.5434047,18.6582761 67.427283,17.7648551 67.427283,16.6161709 C67.427283,13.1701182 69.3213078,10.2345919 71.9729425,8.70301297 L72.6042841,8.44774981 C73.8669673,7.93722349 75.1296505,7.55432876 76.3923337,7.55432876 C80.1803833,7.55432876 83.4633596,9.97932876 84.8523112,13.553013 L85.3573844,14.9569603 L86.746336,14.9569603 C93.5648253,14.9569603 99.2468997,20.4451182 99.7519729,27.2095919 L99.8782413,28.6135393 L101.140924,28.996434 C105.181511,30.4003814 107.959414,34.2293288 107.959414,38.5688024 C107.959414,40.228013 107.580609,42.0148551 106.696731,43.4188024 L106.191657,44.4398551 L106.570462,45.4609077 Z M63.1341601,56.0543288 C63.1341601,52.2253814 61.2401353,48.6516972 58.0834273,46.4819603 C58.0834273,46.4819603 58.0834273,46.4819603 58.0834273,46.4819603 C52.6538895,43.9293288 48.8658399,38.696434 48.10823,32.6977498 C47.9819617,31.8043288 48.6133033,30.9109077 49.4971815,30.7832761 C50.3810598,30.6556445 51.264938,31.2938024 51.3912063,32.1872235 C52.1488162,37.6753814 55.8105975,42.2701182 60.9875986,44.0569603 C64.6493799,45.3332761 68.5636979,45.078013 72.0992108,43.4188024 C75.6347238,41.7595919 78.1600902,38.696434 79.4227734,34.9951182 C79.67531,34.1016972 80.6854566,33.7188024 81.5693348,33.9740656 C82.4532131,34.2293288 82.832018,35.2503814 82.5794814,36.1438024 C81.0642616,40.7385393 77.7812852,44.3122235 73.4881623,46.3543288 C71.0890643,47.503013 68.4374295,48.1411709 65.7857948,48.1411709 C65.2807215,48.1411709 64.7756483,48.1411709 64.1443067,48.0135393 C65.5332582,50.3109077 66.4171364,52.9911709 66.4171364,55.9266972 C66.4171364,56.8201182 65.6595265,57.5859077 64.7756483,57.5859077 C63.89177,57.5859077 63.1341601,56.9477498 63.1341601,56.0543288 Z M94.3224352,36.9095919 C94.3224352,37.803013 93.5648253,38.5688024 92.680947,38.5688024 C91.7970688,38.5688024 91.0394589,37.803013 91.0394589,36.9095919 C91.0394589,29.3793288 84.9785795,23.253013 77.5287486,23.253013 C76.6448703,23.253013 75.8872604,22.4872235 75.8872604,21.5938024 C75.8872604,20.7003814 76.6448703,19.9345919 77.5287486,19.9345919 C86.746336,19.9345919 94.3224352,27.5924867 94.3224352,36.9095919 Z M50.886133,19.8069603 C50.886133,18.9135393 51.643743,18.1477498 52.5276212,18.1477498 C59.7249154,18.1477498 65.6595265,24.0188024 65.6595265,31.421434 C65.6595265,32.3148551 64.9019166,33.0806445 64.0180383,33.0806445 C63.1341601,33.0806445 62.3765502,32.3148551 62.3765502,31.421434 C62.3765502,25.9332761 57.957159,21.4661709 52.5276212,21.4661709 C51.643743,21.4661709 50.886133,20.7003814 50.886133,19.8069603 Z M46.9718151,57.7135393 C46.7192785,58.2240656 46.0879369,58.4793288 45.5828636,58.4793288 C45.3303269,58.4793288 44.951522,58.3516972 44.6989853,58.2240656 C43.9413754,57.7135393 43.6888388,56.6924867 44.1939121,55.9266972 C46.9718151,51.4595919 45.5828636,45.5885393 41.1634724,42.7806445 C40.4058625,42.2701182 40.1533258,41.2490656 40.6583991,40.4832761 C41.1634724,39.7174867 42.1736189,39.4622235 42.9312289,39.9727498 C48.8658399,43.8016972 50.6335964,51.7148551 46.9718151,57.7135393 Z M45.4565953,28.3582761 C42.9312289,28.3582761 40.6583991,27.2095919 38.8906426,25.5503814 C35.9864713,29.7622235 31.1882751,32.0595919 26.3900789,32.0595919 C23.8647125,32.0595919 21.2130778,31.421434 18.8139797,30.0174867 C18.0563698,29.5069603 17.8038331,28.4859077 18.1826381,27.7201182 C18.6877114,26.9543288 19.6978579,26.6990656 20.4554679,27.0819603 C26.1375423,30.4003814 33.4611048,28.4859077 36.8703495,22.6148551 C36.2390079,21.2109077 35.8602029,19.6793288 35.8602029,18.1477498 C35.8602029,17.2543288 36.6178129,16.4885393 37.5016911,16.4885393 C38.3855693,16.4885393 39.1431793,17.2543288 39.1431793,18.1477498 C39.0169109,21.721434 41.9210823,24.7845919 45.4565953,24.9122235 C46.3404735,24.9122235 47.0980834,25.678013 47.0980834,26.571434 C47.0980834,27.7201182 46.3404735,28.3582761 45.4565953,28.3582761 C45.4565953,28.3582761 45.4565953,28.3582761 45.4565953,28.3582761 Z M83.9684329,60.7766972 C84.7260428,61.2872235 84.8523112,62.3082761 84.3472379,63.0740656 C81.1905299,67.6688024 76.1397971,70.221434 70.9627959,70.221434 C67.8060879,70.221434 64.6493799,69.328013 61.8714769,67.4135393 C61.113867,66.903013 60.9875986,65.8819603 61.4926719,65.1161709 C61.9977452,64.3503814 63.0078918,64.2227498 63.7655017,64.7332761 C66.6696731,66.6477498 70.0789177,67.4135393 73.4881623,66.7753814 C76.897407,66.1372235 79.8015784,64.2227498 81.8218715,61.2872235 C82.2006764,60.521434 83.210823,60.2661709 83.9684329,60.7766972 Z" id="Shape"></path>
            </g>
            <g id="Group" transform="translate(102.000000, 29.000000) rotate(134.000000) translate(-102.000000, -29.000000) translate(82.000000, 9.000000)">
                <polygon id="Path" fill="#000000" fill-rule="nonzero" points="29.557267 25.3706988 25.1732474 29.7547184 20.057267 24.638738 14.9412865 29.7547184 10.557267 25.3706988 15.6732474 20.2547184 10.557267 15.138738 14.9412865 10.7547184 20.057267 15.8706988 25.1732474 10.7547184 29.557267 15.138738 24.4412865 20.2547184"></polygon>
                <g id="Group-4" transform="translate(0.557267, 0.754718)">
                    <circle id="Oval" stroke="#979797" fill="#E79898" cx="19.5168873" cy="18.5325276" r="17.6315789"></circle>
                    <polygon id="Path" fill="#FFFFFF" fill-rule="nonzero" points="24.4742635 10.2631579 19.5 15.2374214 14.5257365 10.2631579 10.2631579 14.5257365 15.2374214 19.5 10.2631579 24.4742635 14.5257365 28.7368421 19.5 23.7625786 24.4742635 28.7368421 28.7368421 24.4742635 23.7625786 19.5 28.7368421 14.5257365"></polygon>
                    <path d="M33.2665469,5.71195305 C27.6933291,0.135077605 19.3115874,-1.53327941 12.0297433,1.48483996 C4.74789911,4.50295932 4.54747351e-13,11.6131827 4.54747351e-13,19.5 C4.54747351e-13,27.3868173 4.74789911,34.4970407 12.0297433,37.51516 C19.3115874,40.5332794 27.6933291,38.8649224 33.2665469,33.2880469 C36.9363455,29.6393793 39,24.676617 39,19.5 C39,14.323383 36.9363455,9.36062068 33.2665469,5.71195305 L33.2665469,5.71195305 Z M31.111283,31.13141 C24.6652865,37.4060718 14.3775,37.335109 8.01856411,30.9721217 C1.65962821,24.6091345 1.5887106,14.3147935 7.85937726,7.86469012 C14.2805711,1.44062628 24.6900892,1.44062628 31.111283,7.86469012 L31.111283,7.86469012 C37.5312566,14.289975 37.5312566,24.7061251 31.111283,31.13141 L31.111283,31.13141 Z" id="Shape" fill="#E79898" fill-rule="nonzero"></path>
                </g>
            </g>
        </g>
    </g>
</svg>