<?xml version="1.0" encoding="UTF-8"?>
<svg width="112px" height="113px" viewBox="0 0 112 113" version="1.1" xmlns="http://www.w3.org/2000/svg" xmlns:xlink="http://www.w3.org/1999/xlink">
    <!-- Generator: Sketch 59.1 (86144) - https://sketch.com -->
    <title>noun_skin care_2780768</title>
    <desc>Created with Sketch.</desc>
    <g id="Page-1" stroke="none" stroke-width="1" fill="none" fill-rule="evenodd">
        <g id="noun_skin-care_2780768" fill-rule="nonzero">
            <path d="M76.4449126,109.46875 L43.9040147,109.46875 C42.6106389,109.467455 41.5621093,108.428298 41.5594944,107.145188 L41.5594944,37.6972708 C41.5706232,33.4113526 44.7562226,29.7855103 49.0344327,29.1893125 C49.9129738,29.0624777 50.5589146,28.3066184 50.5412853,27.4260417 C50.5412853,27.3954375 50.5578963,27.3718958 50.5578963,27.3412917 L50.5578963,13.13625 C50.5578963,12.8203086 50.8160659,12.5641875 51.1345344,12.5641875 L73.8678386,12.5641875 C74.0205553,12.5641862 74.1669826,12.6245319 74.2747467,12.7318827 C74.3825107,12.8392334 74.4427348,12.9847465 74.4421037,13.13625 L74.4421037,25.5638958 L55.9066299,25.5638958 C54.9237026,25.5638958 54.1268827,26.3543931 54.1268827,27.3295208 C54.1268827,28.3046486 54.9237026,29.0951458 55.9066299,29.0951458 L74.7814422,29.0951458 C79.5615423,29.1003356 83.4352743,32.9433297 83.4405056,37.6855 L83.4405056,58.16675 C83.4405056,59.1418778 84.2373256,59.932375 85.2202528,59.932375 C86.20318,59.932375 87,59.1418778 87,58.16675 L87,37.6855 C86.9811808,32.2394241 83.298698,27.4763096 78.0015981,26.0465 L78.0015981,13.13625 C78.0002907,10.8715096 76.1506923,9.03553431 73.8678386,9.0329375 L68.7041988,9.0329375 L68.7041988,3.53125 L81.8102572,3.53125 C82.7931844,3.53125 83.5900044,2.74075276 83.5900044,1.765625 C83.5900044,0.790497239 82.7931844,0 81.8102572,0 L51.7823623,0 C50.7994351,0 50.0026151,0.790497239 50.0026151,1.765625 C50.0026151,2.74075276 50.7994351,3.53125 51.7823623,3.53125 L56.2910553,3.53125 L56.2910553,9.0329375 L51.1345344,9.0329375 C48.8512957,9.03553214 47.0010173,10.8711287 46.9984019,13.13625 L46.9984019,26.0347292 C41.7047043,27.4769719 38.0264467,32.2394328 38,37.6855 L38,107.145188 C38.0052295,110.377479 40.6458685,112.996111 43.9040147,113 L76.4449126,113 C77.4278398,113 78.2246598,112.209503 78.2246598,111.234375 C78.2246598,110.259247 77.4278398,109.46875 76.4449126,109.46875 Z M59.8552957,3.53125 L65.1447043,3.53125 L65.1447043,9.0329375 L59.8552957,9.0329375 L59.8552957,3.53125 Z" id="Shape" fill="#8B8B8B"></path>
            <path d="M65.874449,77.8953746 C65.5987415,78.7486613 66.0277686,79.6773164 66.8327078,79.9695839 C67.637647,80.2618514 68.5136843,79.8070555 68.7893918,78.9537688 C68.9018581,78.6058369 71.5000591,70.401457 68.7205349,64.2749361 C66.8771246,60.3957062 64.1742226,57.047908 60.8433036,54.5182447 C60.5403332,54.2749357 60.269496,54.0316267 60.0445634,53.8442787 C58.0623011,52.0272123 56.2902564,49.9674182 54.7655331,47.7080254 C54.479738,47.2405991 53.9795972,46.9713303 53.4549565,47.0024293 C52.9340394,47.0168191 52.4554351,47.3098738 52.1833987,47.7810181 C52.0433897,48.0243271 48.7772766,53.8272471 50.5009947,64.4136222 C52.2545509,75.1751798 61.6282725,80.5839392 62.0276426,80.8077835 C62.2490592,80.9343931 62.4967699,81.0004585 62.748345,81 C63.4554754,81.0012564 64.0725556,80.4918891 64.2446989,79.7648358 C64.4168423,79.0377825 64.0998116,78.2798809 63.4759331,77.9270048 C63.3910095,77.878343 55.0363703,73.0608245 53.5352895,63.8564446 C52.7957972,59.8869647 52.9269417,55.7904109 53.918593,51.8832081 C55.1795193,53.4985803 56.571126,54.9941248 58.0775508,56.3527946 C58.3231405,56.5693397 58.61693,56.8150818 58.9497384,57.0827217 C61.9011989,59.3122129 64.3037309,62.2612694 65.9547821,65.6812622 C68.1719748,70.6009704 65.8928109,77.8321143 65.874449,77.8953746 Z" id="Path" fill-opacity="0.321186626" fill="#A5AE4A"></path>
            <path d="M73.7510165,40.5755449 C73.3849946,40.1039965 72.8006775,39.8989983 72.2466513,40.0477629 C71.692625,40.1965274 71.266359,40.6728826 71.1491994,41.2741727 C70.6900987,43.2518586 69.8211586,45.0921993 68.6074243,46.6574346 C68.3269368,46.9514499 68.0258384,47.2218097 67.7067953,47.4661202 C66.2662753,48.5404498 65.0567508,49.934788 64.1598738,51.5550068 C63.7950658,52.3340131 64.0751609,53.2838832 64.7906557,53.6941404 C65.5061505,54.1043977 66.3952018,53.8249039 66.7928237,53.0647127 C67.5029733,51.8510433 68.4378488,50.8077461 69.5391861,49.9998422 C70.0008521,49.6415551 70.4331072,49.2413284 70.8311996,48.8035618 C71.6301929,47.8224205 72.3033211,46.7304591 72.8325973,45.5568566 C73.6736386,48.1695323 74.0508141,50.9289944 73.944485,53.6915637 C73.8461175,56.4928727 73.0008274,59.2046058 71.509451,61.5032749 C71.0525766,62.2419235 71.2387572,63.2391977 71.925297,63.7307491 C72.6118369,64.2223006 73.5387573,64.0219888 73.9956318,63.2833402 C75.7990005,60.4795589 76.8169796,57.1780495 76.9287914,53.7705182 C77.3049085,49.1104739 76.1831677,44.4527052 73.7510165,40.5755449 L73.7510165,40.5755449 Z" id="Path" fill-opacity="0.321186626" fill="#A5AE4A"></path>
            <path d="M56.804887,59.1642607 C56.6605141,58.6082996 56.2653551,58.1818467 55.7682626,58.0455429 C55.2711701,57.909239 54.7476642,58.0837919 54.3949446,58.5034491 C54.042225,58.9231064 53.9138781,59.5241121 54.058251,60.0800733 C54.8401586,62.5352567 55.8113452,64.9076507 56.9605582,67.1697674 C57.9547824,69.3742904 59.130749,71.4673421 60.472755,73.4209734 C60.8014986,73.8647064 61.3141847,74.0760002 61.8176896,73.9752625 C62.3211945,73.8745247 62.7390237,73.47706 62.913785,72.9325893 C63.0885464,72.3881186 62.9936894,71.7793601 62.6649459,71.3356271 C61.4548853,69.5460498 60.390676,67.6357063 59.4854161,65.6281093 C58.4386161,63.559472 57.5421465,61.3977185 56.804887,59.1642607 L56.804887,59.1642607 Z" id="Path" fill="#A2BE3B"></path>
            <path d="M107.345064,77.6532549 L105.307486,77.6532549 L105.307486,74.4418465 L106.977632,74.4418465 C107.965914,74.4418465 108.767074,73.648944 108.767074,72.6708492 L108.767074,63.7709973 C108.767074,62.7929025 107.965914,62 106.977632,62 L85.0175962,62 C84.0293145,62 83.2281539,62.7929025 83.2281539,63.7709973 L83.2281539,72.6708492 C83.2281539,73.648944 84.0293145,74.4418465 85.0175962,74.4418465 L85.8884581,74.4418465 L85.8884581,77.6532549 L84.6549359,77.6532549 C82.0864923,77.6545542 80.0039471,79.7135204 80,82.2554866 L80,108.395407 C80.0039446,110.937756 82.0861062,112.997399 84.6549359,113 L107.345064,113 C109.913894,112.997399 111.996055,110.937756 112,108.395407 L112,82.2554866 C111.996053,79.7135204 109.913508,77.6545542 107.345064,77.6532549 Z M86.8070385,65.537272 L105.192962,65.537272 L105.192962,70.8951292 L86.8070385,70.8951292 L86.8070385,65.537272 Z M107.345064,109.458005 L84.6549359,109.458005 C84.0621211,109.456713 83.5815062,108.982107 83.5788846,108.395407 L83.5788846,82.2554866 C83.5815118,81.6691708 84.0625077,81.1952438 84.6549359,81.1952496 L87.6779004,81.1952496 C88.6661821,81.1952496 89.4673427,80.4023471 89.4673427,79.4242522 L89.4673427,74.4418465 L101.728601,74.4418465 L101.728601,79.4242522 C101.728601,80.4023471 102.529762,81.1952496 103.518044,81.1952496 L107.33552,81.1952496 C107.927949,81.1952438 108.408945,81.6691708 108.411572,82.2554866 L108.411572,85.1575609 L87.6039368,85.1575609 C86.6156551,85.1575609 85.8144945,85.9504634 85.8144945,86.9285582 C85.8144945,87.906653 86.6156551,88.6995555 87.6039368,88.6995555 L108.418729,88.6995555 L108.418729,108.395407 C108.416116,108.981189 107.936947,109.455419 107.345064,109.458005 L107.345064,109.458005 Z" id="Shape" fill="#F5DADA"></path>
            <path d="M33.206887,82.6702586 C32.7939818,81.5306182 32.2141101,80.4581424 31.486115,79.4876822 L28.7078589,75.8464196 C27.771427,74.6064791 27.5438297,72.9725948 28.1059428,71.5253606 L30.4663982,65.5106911 L30.4663982,65.5106911 L30.4829214,65.4659986 C30.5136057,65.3617766 30.5326053,65.2544871 30.5395723,65.1460944 C30.5724343,65.0411669 30.5945776,64.9332002 30.6056651,64.8238379 L30.6056651,55.2220073 C30.6056651,54.2476789 29.8130562,53.4578297 28.8353235,53.4578297 L23.0356845,53.4578297 L23.0356845,36.8957303 C22.9706866,33.6209176 20.2880776,31 17.0011802,31 C13.7142828,31 11.0316739,33.6209176 10.9666759,36.8957303 L10.9666759,53.4578297 L5.16703693,53.4578297 C4.18930428,53.4578297 3.39669536,54.2476789 3.39669536,55.2220073 L3.39669536,64.8238379 C3.40772145,64.9339795 3.42986437,65.0427325 3.46278811,65.1484466 C3.46977369,65.2560659 3.48877463,65.3625741 3.51943904,65.4659986 L3.53596223,65.5106911 L3.53596223,65.5106911 L5.89641766,71.5253606 C6.45438512,72.9695016 6.22599115,74.5982552 5.29214107,75.8346584 L2.51388503,79.4876822 C0.887046937,81.6297012 0.0045783467,84.241466 0,86.9278072 L0,108.841245 C0.00260165497,111.136987 1.86952193,112.997407 4.1732852,113 L29.8267148,113 C32.1304781,112.997407 33.9973983,111.136987 34,108.841245 L34,86.9278072 C33.993563,85.5171646 33.7428207,84.1182153 33.258817,82.7925749 C33.2449606,82.7504309 33.22759,82.709516 33.206887,82.6702586 Z M14.5073591,36.8957303 C14.5488187,35.5529845 15.6531052,34.4858818 17.0011802,34.4858818 C18.3492552,34.4858818 19.4535418,35.5529845 19.4950014,36.8957303 L19.4950014,53.4578297 L14.5073591,53.4578297 L14.5073591,36.8957303 Z M6.93737851,56.9861849 L27.0649819,56.9861849 L27.0649819,63.0596603 L6.93737851,63.0596603 L6.93737851,56.9861849 Z M30.4593169,108.841245 C30.4593169,109.189405 30.1760913,109.471645 29.8267148,109.471645 L4.1732852,109.471645 C3.8244463,109.470355 3.54197755,109.18887 3.54068314,108.841245 L3.54068314,86.9278072 C3.54458812,85.0117382 4.17429567,83.1490094 5.33462927,81.621161 L8.11288531,77.9775461 C9.79231613,75.7579476 10.2012004,72.8309922 9.1939739,70.238687 L7.76117745,66.5880155 L26.2435435,66.5880155 L24.8083866,70.238687 C23.8009583,72.830647 24.2089128,75.7573368 25.8871147,77.9775461 L28.6653707,81.621161 L28.6842544,81.65174 L9.73687864,81.65174 C8.75914599,81.65174 7.96653707,82.4415893 7.96653707,83.4159177 C7.96653707,84.390246 8.75914599,85.1800953 9.73687864,85.1800953 L30.2586781,85.1800953 C30.3846182,85.7544182 30.451841,86.3399791 30.4593169,86.9278072 L30.4593169,108.841245 Z" id="Shape" fill="#D8A6A6"></path>
            <path d="M72.2872367,85 L66.7127633,85 C65.7668302,85 65,85.8954305 65,87 C65,88.1045695 65.7668302,89 66.7127633,89 L72.2872367,89 C73.2331698,89 74,88.1045695 74,87 C74,85.8954305 73.2331698,85 72.2872367,85 Z" id="Path" fill="#BFBABA"></path>
            <path d="M61.325062,85 L55.674938,85 C54.7498953,85 54,85.8954305 54,87 C54,88.1045695 54.7498953,89 55.674938,89 L61.325062,89 C62.2501047,89 63,88.1045695 63,87 C63,85.8954305 62.2501047,85 61.325062,85 Z" id="Path" fill="#BFBABA"></path>
            <path d="M72.2872367,93 L66.7127633,93 C65.7668302,93 65,93.8954305 65,95 C65,96.1045695 65.7668302,97 66.7127633,97 L72.2872367,97 C73.2331698,97 74,96.1045695 74,95 C74,93.8954305 73.2331698,93 72.2872367,93 L72.2872367,93 Z" id="Path" fill="#CEC6C1"></path>
            <path d="M61.325062,93 L55.674938,93 C54.7498953,93 54,93.8954305 54,95 C54,96.1045695 54.7498953,97 55.674938,97 L61.325062,97 C62.2501047,97 63,96.1045695 63,95 C63,93.8954305 62.2501047,93 61.325062,93 L61.325062,93 Z" id="Path" fill="#CEC6C1"></path>
        </g>
    </g>
</svg>